<svg width="48" height="48" viewBox="0 0 48 48" fill="none" xmlns="http://www.w3.org/2000/svg"><g clip-path="url(#a)"><path d="M24.5 48c13.255 0 24-10.745 24-24S37.755 0 24.5 0 .5 10.745.5 24s10.745 24 24 24Z" fill="#252525"/><path d="m10.982 23.48 23.14-8.922c1.074-.388 2.012.262 1.664 1.886l.002-.002-3.94 18.562c-.293 1.316-1.074 1.636-2.168 1.016l-6-4.422-2.895 2.788c-.32.32-.59.59-1.21.59l.427-6.106 11.12-10.046c.484-.426-.108-.666-.747-.242l-13.741 8.652-5.925-1.848c-1.285-.408-1.313-1.286.273-1.906Z" fill="#fff"/></g><defs><clipPath id="a"><path fill="#fff" d="M0 0h48v48H0z"/></clipPath></defs></svg>