<svg width="48" height="48" viewBox="0 0 48 48" fill="none" xmlns="http://www.w3.org/2000/svg"><g clip-path="url(#a)"><path d="M24 48c13.255 0 24-10.745 24-24S37.255 0 24 0 0 10.745 0 24s10.745 24 24 24Z" fill="#252525"/><path fill-rule="evenodd" clip-rule="evenodd" d="M23.093 34.526h1.884s.569-.063.86-.376c.267-.287.258-.827.258-.827s-.037-2.528 1.137-2.9c1.156-.366 2.641 2.443 4.215 3.523 1.19.818 2.095.639 2.095.639l4.208-.059s2.202-.136 1.158-1.867c-.086-.141-.608-1.28-3.13-3.62-2.638-2.45-2.285-2.053.894-6.29 1.936-2.58 2.71-4.156 2.468-4.83-.23-.643-1.654-.473-1.654-.473l-4.739.03s-.351-.048-.612.107c-.254.153-.418.509-.418.509s-.75 1.997-1.75 3.695c-2.11 3.583-2.954 3.772-3.299 3.55-.802-.52-.602-2.084-.602-3.195 0-3.472.527-4.92-1.025-5.295-.515-.125-.894-.207-2.212-.22-1.69-.017-3.122.005-3.932.402-.539.264-.955.852-.701.886.313.042 1.022.192 1.398.704.486.66.469 2.144.469 2.144s.279 4.087-.652 4.595c-.639.348-1.515-.363-3.396-3.613-.964-1.665-1.692-3.506-1.692-3.506s-.14-.344-.39-.528c-.304-.223-.728-.294-.728-.294l-4.503.03s-.676.019-.924.313c-.221.261-.018.802-.018.802s3.525 8.247 7.517 12.404c3.66 3.81 7.816 3.56 7.816 3.56Z" fill="#fff"/></g><defs><clipPath id="a"><path fill="#fff" d="M0 0h48v48H0z"/></clipPath></defs></svg>