<svg width="48" height="48" viewBox="0 0 48 48" fill="none" xmlns="http://www.w3.org/2000/svg"><g clip-path="url(#a)"><circle cx="24" cy="24" r="24" fill="#252525"/><path d="m11.698 35.959 1.313-6.094a12.938 12.938 0 1 1 4.688 4.406l-6 1.688Z" fill="#25D366"/><path d="m11.698 35.959 1.313-6.094a12.938 12.938 0 1 1 4.688 4.406l-6 1.688Z" fill="#252525"/><path d="m11.698 35.959 1.313-6.094a12.938 12.938 0 1 1 4.688 4.406l-6 1.688Z" stroke="#fff" stroke-width="2"/><path d="M29.042 24.709c-.281-.188-.563-.281-.844.094l-1.125 1.5c-.281.187-.468.28-.843.093-1.407-.75-3.375-1.593-5.063-4.406-.094-.375.094-.562.281-.75l.844-1.312c.188-.188.094-.375 0-.563l-1.125-2.719c-.281-.75-.563-.656-.844-.656h-.75c-.187 0-.562.094-.937.469-2.063 2.062-1.219 4.969.281 6.844.281.375 2.156 3.75 6.188 5.53 3 1.313 3.656 1.126 4.5.938 1.03-.093 2.062-.937 2.53-1.78.095-.282.563-1.5.188-1.688" fill="#fff"/></g><defs><clipPath id="a"><path fill="#fff" d="M0 0h48v48H0z"/></clipPath></defs></svg>